{"title":"Hardx - Siri first anal scene (mobile resolution)","uid":11023355,"size":179359876,"categoryP":"porn","categoryS":"movie_clips","magnet":"?xt=urn:btih:a55b32d4477304fa4a4aae53a5fc0909fc44a8cc&amp;dn=Hardx+-+Siri+first+anal+scene+%28mobile+resolution%29&amp;tr=udp%3A%2F%2Ftracker.openbittorrent.com%3A80&amp;tr=udp%3A%2F%2Fopen.demonii.com%3A1337&amp;tr=udp%3A%2F%2Ftracker.coppersurfer.tk%3A6969&amp;tr=udp%3A%2F%2Fexodus.desync.com%3A6969","seeders":1,"leechers":1,"uploader":"supertongo","files":2,"time":1410631023,"description":" &lt;a href=&quot;http://bayimg.com/lAAdbaaGG&quot; rel=&quot;nofollow&quot; target=&quot;_NEW&quot;&gt;http://bayimg.com/lAAdbaaGG&lt;/a&gt;\n\n:::::::Media info::::::\n\nGeneral\nFormat                         : MPEG-4\nCodec ID                       : M4V \nFile size                      : 171 MiB\nDuration                       : 41mn 37s\nOverall bit rate mode          : Variable\nOverall bit rate               : 574 Kbps\nWriting application            : Lavf54.59.106\n\nVideo\nID                             : 1\nFormat                         : AVC\nFormat/Info                    : Advanced Video Codec\nFormat profile                 : &lt;a class=&quot;__cf_email__&quot; href=&quot;/cdn-cgi/l/email-protection&quot; data-cfemail=&quot;8fcdeefceae3e6e1eacfc3bca1bf&quot;&gt;[email&amp;#160;protected]&lt;/a&gt;&lt;script cf-hash='f9e31' type=&quot;text/javascript&quot;&gt;\n/* &lt;![CDATA[ */!function(){try{var t=&quot;currentScript&quot;in document?document.currentScript:function(){for(var t=document.getElementsByTagName(&quot;script&quot;),e=t.length;e--;)if(t[e].getAttribute(&quot;cf-hash&quot;))return t[e]}();if(t&amp;&amp;t.previousSibling){var e,r,n,i,c=t.previousSibling,a=c.getAttribute(&quot;data-cfemail&quot;);if(a){for(e=&quot;&quot;,r=parseInt(a.substr(0,2),16),n=2;a.length-n;n+=2)i=parseInt(a.substr(n,2),16)^r,e+=String.fromCharCode(i);e=document.createTextNode(e),c.parentNode.replaceChild(e,c)}}}catch(u){}}();/* ]]&gt; */&lt;/script&gt;\nFormat settings, CABAC         : No\nFormat settings, ReFrames      : 1 frame\nCodec ID                       : avc1\nCodec ID/Info                  : Advanced Video Coding\nDuration                       : 41mn 37s\nBit rate mode                  : Variable\nBit rate                       : 515 Kbps\nMaximum bit rate               : 1 024 Kbps\nWidth                          : 640 pixels\nHeight                         : 480 pixels\nDisplay aspect ratio           : 4:3\nFrame rate mode                : Constant\nFrame rate                     : 29.970 fps\nColor space                    : YUV\nChroma subsampling             : 4:2:0\nBit depth                      : 8 bits\nScan type                      : Progressive\nBits/(Pixel*Frame)             : 0.056\nStream size                    : 153 MiB (90%)\n\nAudio\nID                             : 2\nFormat                         : AAC\nFormat/Info                    : Advanced Audio Codec\nFormat profile                 : LC\nCodec ID                       : 40\nDuration                       : 41mn 37s\nDuration_LastFrame             : -12ms\nBit rate mode                  : Variable\nBit rate                       : 52.5 Kbps\nMaximum bit rate               : 10 000 Kbps\nChannel(s)                     : 2 channels\nChannel positions              : Front: L R\nSampling rate                  : 48.0 KHz\nCompression mode               : Lossy\nStream size                    : 15.6 MiB (9%)\n\nEnjoy\n\n","torrent":{"xt":"urn:btih:a55b32d4477304fa4a4aae53a5fc0909fc44a8cc","amp;dn":"Hardx+-+Siri+first+anal+scene+%28mobile+resolution%29","amp;tr":["udp%3A%2F%2Ftracker.openbittorrent.com%3A80","udp%3A%2F%2Fopen.demonii.com%3A1337","udp%3A%2F%2Ftracker.coppersurfer.tk%3A6969","udp%3A%2F%2Fexodus.desync.com%3A6969"],"infoHash":"a55b32d4477304fa4a4aae53a5fc0909fc44a8cc","infoHashBuffer":{"type":"Buffer","data":[165,91,50,212,71,115,4,250,74,74,174,83,165,252,9,9,252,68,168,204]},"announce":[],"urlList":[]}}